<svg width="16" height="16" viewBox="0 0 16 16" fill="none" xmlns="http://www.w3.org/2000/svg">
    <path
        d="M7.99967 14.6666C11.6816 14.6666 14.6663 11.6819 14.6663 7.99998C14.6663 4.31808 11.6816 1.33331 7.99967 1.33331C4.31778 1.33331 1.33301 4.31808 1.33301 7.99998C1.33301 11.6819 4.31778 14.6666 7.99967 14.6666Z"
        stroke="white" stroke-linecap="round" stroke-linejoin="round" />
    <path
        d="M6.05957 5.99995C6.21631 5.5544 6.52567 5.17869 6.93287 4.93937C7.34007 4.70006 7.81883 4.61258 8.28435 4.69243C8.74987 4.77228 9.17211 5.0143 9.47629 5.37564C9.78046 5.73697 9.94694 6.1943 9.94624 6.66662C9.94624 7.99995 7.94624 8.66662 7.94624 8.66662"
        stroke="white" stroke-linecap="round" stroke-linejoin="round" />
    <path d="M8 11.3333H8.00667" stroke="white" stroke-linecap="round" stroke-linejoin="round" />
</svg>