<svg width="36" height="35" viewBox="0 0 36 35" fill="none" xmlns="http://www.w3.org/2000/svg">
    <path fill-rule="evenodd" clip-rule="evenodd"
        d="M1.97703 1.92211C0 3.84422 0 6.93782 0 13.125V21.875C0 28.0622 0 31.1558 1.97703 33.0779C3.95406 35 7.13604 35 13.5 35H22.5C28.864 35 32.0459 35 34.023 33.0779C36 31.1558 36 28.0622 36 21.875V13.125C36 6.93782 36 3.84422 34.023 1.92211C32.0459 0 28.864 0 22.5 0H13.5C7.13604 0 3.95406 0 1.97703 1.92211ZM8.98525 10.9641C7.50299 10.9641 6.3 9.78254 6.3 8.32579C6.3 6.86905 7.50299 5.6875 8.98525 5.6875C10.4675 5.6875 11.6705 6.86905 11.6705 8.32579C11.6705 9.78254 10.469 10.9641 8.98525 10.9641ZM6.68361 29.3125V12.8606H11.2869V29.3125H6.68361ZM25.0967 29.3125H29.7V19.2035C29.7 11.347 21.1026 11.6326 18.959 15.5003V12.8606H14.3557V29.3125H18.959V20.931C18.959 16.2751 25.0967 15.8937 25.0967 20.931V29.3125Z"
        fill="url(#paint0_linear)" />
    <defs>
        <linearGradient id="paint0_linear" x1="18" y1="0" x2="18" y2="35" gradientUnits="userSpaceOnUse">
            <stop stop-color="#0077B5" />
            <stop offset="1" stop-color="#0E6795" />
        </linearGradient>
    </defs>
</svg>