<svg width="12" height="12" viewBox="0 0 12 12" fill="none" xmlns="http://www.w3.org/2000/svg">
    <path fill-rule="evenodd" clip-rule="evenodd"
        d="M0.65901 0.65901C0 1.31802 0 2.37868 0 4.5V7.5C0 9.62132 0 10.682 0.65901 11.341C1.31802 12 2.37868 12 4.5 12H7.5C9.62132 12 10.682 12 11.341 11.341C12 10.682 12 9.62132 12 7.5V4.5C12 2.37868 12 1.31802 11.341 0.65901C10.682 0 9.62132 0 7.5 0H4.5C2.37868 0 1.31802 0 0.65901 0.65901ZM2.99508 3.75912C2.501 3.75912 2.1 3.35401 2.1 2.85456C2.1 2.3551 2.501 1.95 2.99508 1.95C3.48917 1.95 3.89016 2.3551 3.89016 2.85456C3.89016 3.35401 3.48968 3.75912 2.99508 3.75912ZM2.22787 10.05V4.40933H3.76229V10.05H2.22787ZM8.36557 10.05H9.9V6.58407C9.9 3.89039 7.0342 3.98833 6.31967 5.3144V4.40933H4.78525V10.05H6.31967V7.17634C6.31967 5.58003 8.36557 5.44927 8.36557 7.17634V10.05Z"
        fill="url(#paint0_linear)" />
    <defs>
        <linearGradient id="paint0_linear" x1="6" y1="0" x2="6" y2="12" gradientUnits="userSpaceOnUse">
            <stop stop-color="#D8C281" />
            <stop offset="1" stop-color="#AC9B69" />
        </linearGradient>
    </defs>
</svg>