<svg width="16" height="16" viewBox="0 0 16 16" fill="none" xmlns="http://www.w3.org/2000/svg">
    <path
        d="M12 5.33331C13.1046 5.33331 14 4.43788 14 3.33331C14 2.22874 13.1046 1.33331 12 1.33331C10.8954 1.33331 10 2.22874 10 3.33331C10 4.43788 10.8954 5.33331 12 5.33331Z"
        fill="#0275B1" stroke="#0275B1" stroke-linecap="round" stroke-linejoin="round" />
    <path d="M4 10C5.10457 10 6 9.10457 6 8C6 6.89543 5.10457 6 4 6C2.89543 6 2 6.89543 2 8C2 9.10457 2.89543 10 4 10Z"
        fill="#0275B1" stroke="#0275B1" stroke-linecap="round" stroke-linejoin="round" />
    <path
        d="M12 14.6667C13.1046 14.6667 14 13.7713 14 12.6667C14 11.5621 13.1046 10.6667 12 10.6667C10.8954 10.6667 10 11.5621 10 12.6667C10 13.7713 10.8954 14.6667 12 14.6667Z"
        fill="#0275B1" stroke="#0275B1" stroke-linecap="round" stroke-linejoin="round" />
    <path d="M5.72681 9.00677L10.2801 11.6601" stroke="#0275B1" stroke-linecap="round" stroke-linejoin="round" />
    <path d="M10.2735 4.34009L5.72681 6.99342" stroke="#0275B1" stroke-linecap="round" stroke-linejoin="round" />
</svg>